<svg width="21" height="21" viewBox="0 0 21 21" fill="none" xmlns="http://www.w3.org/2000/svg">
<path fill-rule="evenodd" clip-rule="evenodd" d="M0 9.25C0 4.14139 4.14139 0 9.25 0C14.3586 0 18.5 4.14139 18.5 9.25C18.5 14.3586 14.3586 18.5 9.25 18.5C4.14139 18.5 0 14.3586 0 9.25ZM9.25 1.5C4.96981 1.5 1.5 4.96981 1.5 9.25C1.5 13.5302 4.96981 17 9.25 17C13.5302 17 17 13.5302 17 9.25C17 4.96981 13.5302 1.5 9.25 1.5Z" fill="url(#paint0_linear_110_480)"/>
<path fill-rule="evenodd" clip-rule="evenodd" d="M5.8912 5.3912C6.74999 4.53247 7.93851 4 9.24996 4C10.5614 4 11.7499 4.53246 12.6087 5.39122C12.9016 5.68411 12.9016 6.15899 12.6087 6.45188C12.3158 6.74477 11.8409 6.74477 11.548 6.45188C10.9591 5.86294 10.1476 5.5 9.24996 5.5C8.35231 5.5 7.54083 5.86293 6.95182 6.4519C6.65892 6.74478 6.18404 6.74476 5.89116 6.45186C5.59828 6.15896 5.59829 5.68408 5.8912 5.3912Z" fill="url(#paint1_linear_110_480)"/>
<path fill-rule="evenodd" clip-rule="evenodd" d="M14.8306 14.8306C15.1235 14.5377 15.5983 14.5377 15.8912 14.8306L20.1339 19.0732C20.4268 19.3661 20.4268 19.841 20.1339 20.1339C19.841 20.4268 19.3661 20.4268 19.0732 20.1339L14.8306 15.8912C14.5377 15.5983 14.5377 15.1235 14.8306 14.8306Z" fill="url(#paint2_linear_110_480)"/>
<defs>
<linearGradient id="paint0_linear_110_480" x1="0" y1="0" x2="18.7255" y2="0.23118" gradientUnits="userSpaceOnUse">
<stop stop-color="#73E0A9"/>
<stop offset="1" stop-color="#5B68DF"/>
</linearGradient>
<linearGradient id="paint1_linear_110_480" x1="5.67151" y1="4" x2="12.9088" y2="4.23936" gradientUnits="userSpaceOnUse">
<stop stop-color="#73E0A9"/>
<stop offset="1" stop-color="#5B68DF"/>
</linearGradient>
<linearGradient id="paint2_linear_110_480" x1="14.6109" y1="14.6109" x2="20.4236" y2="14.6827" gradientUnits="userSpaceOnUse">
<stop stop-color="#73E0A9"/>
<stop offset="1" stop-color="#5B68DF"/>
</linearGradient>
</defs>
</svg>
